<svg xmlns="http://www.w3.org/2000/svg" width="64" height="64" viewBox="0 0 64 64" version="1.1"><path d="" stroke="none" fill="#080404" fill-rule="evenodd"/><path d="M 0 1.777 C 0 2.754, 3.130 6.660, 6.956 10.456 C 13.645 17.094, 13.828 17.401, 11.706 18.457 C 9.644 19.484, 9.482 20.327, 9.217 31.386 C 9.029 39.253, 9.322 43.683, 10.090 44.608 C 10.857 45.532, 13.398 46, 17.655 46 L 24.065 46 35.282 55.025 C 48.142 65.372, 50.219 65.923, 51 59.195 L 51.500 54.890 55.958 59.445 C 60.565 64.152, 64 65.347, 64 62.244 C 64 59.956, 4.032 0, 1.744 0 C 0.740 0, 0 0.754, 0 1.777 M 36.211 8.206 L 25.922 16.393 38.211 28.713 L 50.500 41.033 50.772 21.796 C 50.922 11.216, 50.824 1.983, 50.554 1.279 C 49.541 -1.360, 46.211 0.248, 36.211 8.206" stroke="none" fill="#040404" fill-rule="evenodd"/></svg>