<svg xmlns="http://www.w3.org/2000/svg" width="64" height="64" viewBox="0 0 64 64" version="1.1"><path d="" stroke="none" fill="#080404" fill-rule="evenodd"/><path d="M 24.147 10.541 C 13.853 18.952, 13.762 19, 8.097 19 C 4.964 19, 1.860 19.540, 1.200 20.200 C -0.446 21.846, -0.446 42.154, 1.200 43.800 C 1.860 44.460, 4.963 45, 8.095 45 C 13.750 45, 13.865 45.061, 24.437 53.565 C 30.571 58.500, 35.808 61.991, 36.792 61.801 C 38.357 61.500, 38.500 58.996, 38.500 31.986 C 38.500 3.236, 38.450 2.495, 36.500 2.291 C 35.273 2.162, 30.500 5.350, 24.147 10.541 M 51.381 11.450 C 51.075 12.247, 52.159 14.609, 53.789 16.700 C 60.897 25.813, 60.897 38.187, 53.789 47.300 C 48.625 53.921, 52.553 56.792, 57.899 50.306 C 66.056 40.411, 66.056 23.589, 57.899 13.694 C 54.710 9.825, 52.320 9.002, 51.381 11.450 M 45.373 17.471 C 45.063 18.279, 45.726 20.108, 46.847 21.533 C 51.747 27.761, 51.948 34.850, 47.416 41.528 C 43.195 47.749, 46.566 50.681, 51.373 44.969 C 54.026 41.816, 55.989 36.301, 55.989 32 C 55.989 23.165, 47.596 11.678, 45.373 17.471" stroke="none" fill="#040404" fill-rule="evenodd"/></svg>